<svg width="50" height="48" viewBox="0 0 50 48" fill="none" xmlns="http://www.w3.org/2000/svg">
<g id="settings">
<path id="Vector" d="M26.7676 8H23.2323C21.2798 8 19.6969 9.43269 19.6969 11.2V12.3844C19.6969 13.8868 18.1022 14.8528 16.7706 14.1569L15.4046 13.4431C13.7137 12.5594 11.5515 13.0838 10.5752 14.6143L8.80754 17.3856C7.83128 18.9162 8.41063 20.8733 10.1016 21.7569L11.002 22.2274C12.4336 22.9756 12.4336 25.0244 11.002 25.7726L10.1016 26.2431C8.41063 27.1267 7.83127 29.0838 8.80754 30.6144L10.5752 33.3857C11.5515 34.9162 13.7137 35.4406 15.4046 34.5569L16.7706 33.8431C18.1022 33.1472 19.6969 34.1132 19.6969 35.6156V36.8C19.6969 38.5673 21.2798 40 23.2323 40H26.7676C28.7202 40 30.303 38.5673 30.303 36.8V35.6156C30.303 34.1132 31.8977 33.1472 33.2293 33.8431L34.5953 34.5569C36.2862 35.4406 38.4484 34.9162 39.4247 33.3856L41.1924 30.6143C42.1687 29.0838 41.5893 27.1267 39.8984 26.2431L38.998 25.7726C37.5664 25.0244 37.5664 22.9756 38.998 22.2274L39.8984 21.7569C41.5893 20.8733 42.1687 18.9162 41.1924 17.3857L39.4247 14.6144C38.4484 13.0838 36.2862 12.5594 34.5953 13.4431L33.2293 14.1569C31.8977 14.8528 30.303 13.8868 30.303 12.3844V11.2C30.303 9.43269 28.7202 8 26.7676 8Z" stroke="#797C7B" stroke-width="1.5" stroke-linejoin="round"/>
<ellipse id="Ellipse 91" cx="25" cy="24" rx="6.25" ry="6" stroke="#797C7B" stroke-width="1.5"/>
</g>
</svg>
